<!--
  kysigned logo mark.

  Derived from brand/logo/kysigned-logo-1024.png by deterministic bitmap trace
  (potrace, bilevel, threshold 128, optTolerance 0.2) - NOT a redraw. The mark
  was originally image-generated (see brand/archive/), so no vector master ever
  existed; every path here comes from the master's own pixels.

  Fidelity vs that master, composited over white and pixel-diffed:
    1024px: 0.63% of pixels differ, mean channel delta 0.92
      64px: 0.12% differ
      32px: 0.88% differ
  The differing pixels are anti-aliasing edges. Ink sampled from the master:
  rgb(26,26,50) = #1a1a32.

  Regenerate only from the 1024 master, never from a smaller PNG.
-->
<svg xmlns="http://www.w3.org/2000/svg" width="1024" height="1024" viewBox="0 0 1024 1024" version="1.1">
	<path d="M 210.909 141.554 C 193.848 144.643, 179.377 151.867, 167.226 163.360 C 155.180 174.753, 146.653 189.542, 142.254 206.671 C 140.601 213.106, 140.500 230.723, 140.500 512 L 140.500 810.500 142.762 819 C 152.030 853.832, 180.007 878.553, 215.146 882.959 C 226.235 884.350, 796.917 884.394, 809.034 883.006 C 840.523 879.397, 868.818 856.662, 879.072 826.729 C 880.622 822.203, 882.383 814.675, 882.984 810 C 883.759 803.970, 883.984 715.917, 883.759 507 C 883.470 238.007, 883.300 211.927, 881.801 205.884 C 877.888 190.104, 867.549 172.212, 856.824 162.658 C 849.413 156.057, 837.970 149.192, 828.500 145.666 C 812.383 139.664, 831.026 139.992, 511.119 140.090 C 267.525 140.164, 217.228 140.410, 210.909 141.554 M 218.500 163.050 C 208.560 163.998, 202.991 165.723, 194.296 170.547 C 180.551 178.171, 169.753 192.450, 164.803 209.545 L 162.500 217.500 162.500 513.500 C 162.500 798.061, 162.571 809.732, 164.340 815.500 C 170.628 836.008, 186.023 851.848, 206.369 858.744 L 214.500 861.500 512 861.500 C 798.018 861.500, 809.732 861.429, 815.500 859.660 C 836.744 853.147, 853.147 836.744, 859.660 815.500 C 861.429 809.732, 861.500 798.018, 861.500 512 L 861.500 214.500 858.676 206.500 C 854.610 194.977, 850.582 188.455, 842.565 180.409 C 833.769 171.580, 822.490 165.631, 810.499 163.495 C 803.689 162.282, 759.698 162.086, 514.500 162.179 C 356.100 162.238, 222.900 162.631, 218.500 163.050 M 562.428 271.250 C 563.197 276.027, 571.281 333.794, 573.869 353 L 575.553 365.500 649.695 365.756 L 723.838 366.013 724.407 363.256 C 724.720 361.740, 727.688 340.025, 731.002 315 C 734.316 289.975, 737.233 268.938, 737.483 268.250 C 737.844 267.256, 719.894 267, 649.841 267 L 561.744 267 562.428 271.250 M 288.326 275.997 C 282.102 277.298, 278.759 279.362, 273.625 285.072 C 265.536 294.069, 264.041 305.227, 269.486 315.972 C 271.708 320.358, 279.556 328.801, 322.959 373.500 C 330.436 381.200, 345.912 397.334, 357.350 409.353 L 378.145 431.207 370.818 438.853 C 366.788 443.059, 349.549 461.125, 332.510 479 C 315.470 496.875, 294.753 518.475, 286.473 527 C 269.103 544.882, 266.620 548.873, 266.583 558.972 C 266.543 570.026, 272.380 579.519, 282.241 584.433 C 289.269 587.935, 299.279 588.015, 306.555 584.627 C 312.680 581.775, 314.587 579.920, 353.501 538.980 C 373.702 517.727, 406.936 483.068, 422.830 466.679 C 435.689 453.420, 439.781 448.529, 442.079 443.670 C 445.608 436.211, 445.955 428.534, 443.102 421.026 C 440.788 414.937, 439.351 413.186, 422.134 395.474 C 414.635 387.760, 386.720 358.882, 360.100 331.302 C 326.605 296.597, 310.280 280.381, 307.086 278.643 C 301.811 275.772, 294.402 274.727, 288.326 275.997 M 564.605 384.922 C 557.630 389.520, 555.465 399.162, 559.823 406.214 C 564.232 413.347, 559.612 413, 650.151 412.996 C 729.561 412.993, 731.578 412.945, 734.759 411.005 C 744.168 405.269, 744.352 391.449, 735.102 385.270 L 731.704 383 649.602 383.007 C 570.496 383.013, 567.394 383.083, 564.605 384.922 M 582.516 430.975 C 581.485 432.643, 542.999 544.080, 543.022 545.329 C 543.034 545.973, 546.354 550.470, 550.399 555.323 C 577.285 587.575, 602.169 629.875, 618.817 671.626 C 625.025 687.195, 625.901 690.131, 625.022 692.441 C 623.481 696.495, 623.827 702.022, 625.909 706.606 C 627.935 711.068, 634.215 715, 639.316 715 L 642 715 641.968 640.250 L 641.937 565.500 637.626 562.887 C 634.550 561.022, 632.554 558.746, 630.657 554.940 C 623.027 539.628, 633.282 523, 650.356 523 C 657.411 523, 662.482 525.408, 667.314 531.054 C 675.280 540.360, 674.094 553.442, 664.524 561.845 C 662.548 563.580, 660.496 565, 659.965 565 C 659.353 565, 659 592.515, 659 640.128 L 659 715.256 663.159 714.591 C 669.197 713.625, 672.759 711.129, 675.151 706.189 C 676.887 702.602, 677.124 700.923, 676.496 696.667 C 675.269 688.357, 675.492 687.104, 680.432 674.500 C 690.121 649.783, 711.943 608.294, 727.024 585.915 C 733.126 576.861, 748.295 557.001, 753.698 550.991 L 758.252 545.926 748.972 519.213 C 743.868 504.521, 735.546 480.575, 730.480 466 C 725.413 451.425, 720.608 437.475, 719.801 435 L 718.333 430.500 650.730 430.243 C 606.982 430.077, 582.911 430.335, 582.516 430.975 M 412.500 645.473 C 389.932 650.416, 367.855 670.676, 359.922 693.725 C 347.688 729.267, 376.226 760.405, 416.082 755 C 433.562 752.629, 452.961 744.215, 480.104 727.230 C 507.141 710.311, 515.704 707.124, 526.250 710.053 C 530.748 711.302, 531.062 712.608, 527.075 713.484 C 525.466 713.837, 521.649 715.917, 518.592 718.106 C 506.773 726.569, 504.047 739.289, 512.089 748.448 C 524.052 762.073, 546.801 752.560, 552.044 731.740 L 553.184 727.212 556.842 728.219 C 562.163 729.684, 569.079 733.356, 581.326 741.220 C 606.374 757.302, 622.213 760.983, 640.255 754.912 C 648.293 752.207, 655.542 747.520, 656.952 744.115 C 658.643 740.032, 656.192 734.342, 652.316 733.353 C 648.076 732.271, 646.725 732.584, 641.589 735.842 C 632.317 741.722, 620.661 742.390, 609.168 737.700 C 606.051 736.428, 597.271 731.437, 589.658 726.610 C 574.266 716.850, 565.584 712.787, 556.204 710.953 C 551.023 709.940, 549.662 709.248, 548.526 707.050 C 546.301 702.748, 540.884 697.924, 535.414 695.374 C 527.719 691.787, 520.049 691.340, 509.949 693.890 C 499.736 696.468, 491.235 700.689, 471.573 712.946 C 452.311 724.953, 439.931 731.272, 428.054 735.158 C 419.981 737.799, 416.872 738.301, 408 738.392 C 398.465 738.490, 396.948 738.242, 391.500 735.696 C 380.972 730.776, 375.589 723.864, 374.399 713.739 C 372.786 700.011, 380.728 684.323, 395.500 672.059 C 409.911 660.095, 428.766 657.566, 437.611 666.411 C 448.738 677.538, 436.972 695.703, 417.323 697.730 C 411.045 698.378, 408 701.229, 408 706.461 C 408 711.581, 411.913 714.530, 418.500 714.373 C 435.175 713.975, 451.628 702.399, 456.692 687.500 C 459.151 680.266, 458.866 669.803, 456.031 663.258 C 452.151 654.299, 442.205 647.315, 430.040 645.008 C 423.348 643.738, 420.017 643.827, 412.500 645.473 M 528.905 731.285 C 525.052 733.882, 524.029 736.690, 526.580 737.669 C 527.794 738.135, 529.301 737.248, 531.654 734.681 C 536.983 728.866, 535.399 726.909, 528.905 731.285" stroke="none" fill="#1a1a32" fill-rule="evenodd"/>
</svg>